<?xml version="1.0" encoding="UTF-8" standalone="no"?>
<!-- Created with Inkscape (http://www.inkscape.org/) -->

<svg
   width="97.076797mm"
   height="46.588074mm"
   viewBox="0 0 97.076797 46.588074"
   version="1.1"
   id="svg1"
   xml:space="preserve"
   xmlns="http://www.w3.org/2000/svg"
   xmlns:svg="http://www.w3.org/2000/svg"><defs
     id="defs1" /><g
     id="layer2-3"
     transform="translate(-65.005743,-124.57815)"><path
       d="m 86.918966,125.30398 -11.450464,3.25251 -3.903638,3.77393 -3.903638,6.89622 -1.691369,6.89622 -0.259933,6.766 3.512964,11.05979 6.89622,5.20485 10.409701,1.30121 5.854939,-1.56115 3.513481,-3.6437 v 3.90364 l 13.792441,-0.39016 -1.69137,-14.83372 6.04769,0.5209 2.40967,1.9513 7.15667,12.75168 12.62146,-1.56115 -8.32766,-13.40228 -3.90364,-3.25303 3.51348,-0.91054 2.60243,-2.9931 2.21175,-4.16357 4.9444,25.63306 10.4097,-3.90364 -3.90364,-12.361 12.361,-2.86236 3.25304,-3.25303 1.95181,-6.24561 -2.86235,-8.45789 -4.29432,-3.25303 -13.92266,-1.56114 -9.2382,0.91054 -1.30121,5.20485 -9.36842,-4.9444 h -10.79986 l -9.628865,1.69137 -4.033346,1.30121 -4.554244,-4.2938 z m 59.203624,7.80675 3.90363,0.26045 3.77342,4.55425 -1.56115,5.20433 -2.60242,2.21227 h -6.11591 l -1.95182,-6.766 v -4.2292 z m -63.757868,1.95182 3.51348,0.91106 2.601909,3.64319 1.301212,5.07462 v 8.19744 l -1.561145,4.55424 -2.602425,3.25303 -6.245613,1.56115 -4.814177,-3.77342 -2.342493,-6.24561 v -5.59501 l 3.253032,-8.71781 3.253031,-2.21227 z m 29.927368,0.65061 4.81418,0.65061 3.90364,4.55424 -2.60243,5.20485 -6.24561,2.37712 h -4.16357 l -0.65061,-12.26644 z"
       style="fill:#1e1e1e;fill-opacity:1;stroke:#ffffff;stroke-width:1.4;stroke-opacity:1"
       id="path45-8" /><g
       id="g49"><path
         style="fill:#ffffff;fill-opacity:1;stroke:none;stroke-width:0.3;stroke-linecap:butt;stroke-linejoin:miter;stroke-dasharray:none;stroke-opacity:1"
         d="m 152.23849,143.12976 -15.79122,-9.35117 -2.11618,1.84015 -4.9914,-7.67112 10.92588,0.56354 -2.30018,2.85224 14.89116,7.63511 0.014,0.22458"
         id="path7-7" /><path
         style="fill:#ffffff;fill-opacity:1;stroke:none;stroke-width:0.1;stroke-linecap:butt;stroke-linejoin:miter;stroke-dasharray:none;stroke-opacity:1"
         d="m 102.42728,162.1401 -0.41404,1.95516 -2.507201,0.46003 2.162171,0.39104 0.92008,1.21909 0.23002,-1.21909 c 0,0 2.82923,-0.75907 2.71422,-0.75907 -0.11501,0 -2.23118,-0.046 -2.23118,-0.046 z"
         id="path5-4" /><path
         style="fill:#ffffff;fill-opacity:1;stroke:none;stroke-width:0.1;stroke-linecap:butt;stroke-linejoin:miter;stroke-dasharray:none;stroke-opacity:1"
         d="m 120.57387,130.86263 -0.41404,1.95516 -2.5072,0.46003 2.16217,0.39104 0.92008,1.21909 0.23002,-1.21909 c 0,0 2.82923,-0.75907 2.71422,-0.75907 -0.11501,0 -2.23118,-0.046 -2.23118,-0.046 z"
         id="path5-5-2" /><path
         style="fill:#ffffff;fill-opacity:1;stroke:none;stroke-width:0.112203;stroke-linecap:butt;stroke-linejoin:miter;stroke-dasharray:none;stroke-opacity:1"
         d="m 141.40713,158.90751 -0.41294,2.46797 -2.50057,0.58069 2.15645,0.49361 0.91765,1.53884 0.22941,-1.53884 c 0,0 2.82175,-0.95817 2.70704,-0.95817 -0.11471,0 -2.22528,-0.0581 -2.22528,-0.0581 z"
         id="path5-5-1-7" /><path
         style="fill:#ffffff;fill-opacity:1;stroke:none;stroke-width:0.112203;stroke-linecap:butt;stroke-linejoin:miter;stroke-dasharray:none;stroke-opacity:1"
         d="m 86.719996,127.60916 -0.41294,2.46797 -2.50057,0.58069 2.15645,0.49361 0.91765,1.53884 0.22941,-1.53884 c 0,0 2.82175,-0.95817 2.70704,-0.95817 -0.11471,0 -2.22528,-0.0581 -2.22528,-0.0581 z"
         id="path5-5-1-1-7" /><path
         style="fill:none;fill-opacity:1;stroke:#ffffff;stroke-width:1.4;stroke-linecap:butt;stroke-linejoin:miter;stroke-dasharray:none;stroke-opacity:1"
         d="m 85.877984,135.97348 -3.187893,4.16378 1.4313,2.92766 2.713725,0.19517 4.572892,-2.47224 5.399902,-4.03366 3.057779,-6.05449 0.195171,-4.15979 -3.578244,-0.71565 -2.862599,2.79754 v 0 0"
         id="path6-9" /></g></g></svg>
